<?xml version="1.0" encoding="iso-8859-1"?>
<!-- Generator: Adobe Illustrator 16.0.0, SVG Export Plug-In . SVG Version: 6.00 Build 0)  -->
<!DOCTYPE svg PUBLIC "-//W3C//DTD SVG 1.1//EN" "http://www.w3.org/Graphics/SVG/1.1/DTD/svg11.dtd">
<svg version="1.1" id="Capa_1" xmlns="http://www.w3.org/2000/svg" xmlns:xlink="http://www.w3.org/1999/xlink" x="0px" y="0px"
	 width="54.225px" height="54.225px" viewBox="0 0 54.225 54.225" style="enable-background:new 0 0 54.225 54.225;"
	 xml:space="preserve">
<g>
	<g>
		<path d="M27.464,0.355C27.41,0.354,27.356,0.357,27.3,0.366c-0.031-0.001-0.05-0.01-0.083-0.009
			C12.864,0.733,1.211,11.407,0.077,25.816C-1.131,41.172,12.009,53.475,26.76,53.86c7.821,0.205,14.884-3.18,19.892-8.553
			c0.484-0.499,0.955-1.014,1.4-1.55c0.15-0.185,0.32-0.435,0.483-0.695c3.155-4.179,5.187-9.255,5.611-14.662
			C55.356,13.044,42.216,0.741,27.464,0.355z M45.107,13.304c-1.592,3.396-3.252,6.76-4.992,10.083
			c-0.059,0.112-0.092,0.235-0.108,0.359c-0.184-0.151-0.371-0.306-0.562-0.462c0.064-0.072,0.126-0.147,0.168-0.25
			c0.297-0.721,0.597-1.439,0.896-2.158c0.215-0.509,0.619-1.305,0.905-1.776c1.186-1.956,2.386-3.905,3.591-5.852
			C45.296,12.778,45.342,12.804,45.107,13.304z M28.186,37.644c0.037-3.433,0.676-6.299-3.512-6.299c-2.669,0-5.338,0-8.006,0
			c-3.28,0-2.582-1.624-2.582-4.597c0-2.717-0.873-3.419,1.879-3.419c2.872,0,5.743,0,8.615,0c1.403,0,2.208-0.299,2.682-0.788
			c0.477-0.226,0.81-0.706,0.81-1.269V19.33c0-0.306-0.066-0.441-0.167-0.433c0.002-0.567,0.035-1.148,0.153-1.722
			c2.06,1.043,4.238,3.354,5.845,4.552c2.458,1.831,4.915,3.662,7.373,5.493c0.398,0.298-5.871,4.851-6.461,5.291
			C33.056,33.819,30.432,36.612,28.186,37.644z M32.716,35.987c-0.051,0.095-0.102,0.188-0.131,0.273
			c-0.162,0.463-0.533,1.217-0.828,1.683c-1.115,1.755-2.283,3.519-3.517,5.255c-0.32,0.45-0.377,0.416-0.121-0.073
			c1.041-2,2.098-3.994,3.174-5.981C31.775,36.771,32.253,36.384,32.716,35.987z M15.905,32.622
			c-0.062,0.065-0.129,0.131-0.173,0.202c-0.676,1.104-1.352,2.208-2.029,3.312c-0.289,0.471-0.301,0.463-0.023-0.016
			c0.633-1.099,1.27-2.192,1.908-3.285c0.045-0.076,0.068-0.144,0.098-0.214C15.758,32.622,15.832,32.622,15.905,32.622z
			 M22.47,21.826c-0.049,0.08-0.063,0.152-0.084,0.226c-0.107,0-0.212,0-0.318,0c0.068-0.07,0.141-0.14,0.189-0.217
			c1.797-2.833,3.625-5.646,5.398-8.485c0.293-0.469,0.295-0.469,0.006,0.002C25.929,16.173,24.199,19,22.47,21.826z M26.266,19.062
			c-0.051,1.504-0.082,2.99-0.223,2.99c-0.556,0-1.111,0-1.667,0c0.069-0.073,0.143-0.145,0.191-0.226
			C25.132,20.902,25.702,19.983,26.266,19.062z M43.277,7.971c-0.885,3.231-2.052,6.39-3.332,9.517
			c-0.757,1.462-1.537,2.913-2.318,4.362c-1.106-0.851-2.271-1.708-3.397-2.508c0.068-0.062,0.138-0.123,0.188-0.21
			c2.412-4.151,4.823-8.308,7.288-12.429C42.248,7.104,42.77,7.529,43.277,7.971z M39.38,5.188c-1.235,1.789-2.469,3.58-3.689,5.378
			c-0.311,0.456-0.871,0.892-1.236,1.031c-0.297,0.114-0.541,0.241-0.62,0.325c-0.142,0.151-0.275,0.309-0.408,0.465
			c-0.222,0.262-0.199,0.072,0.053-0.419c1.329-2.598,2.646-5.199,3.965-7.801C38.104,4.48,38.751,4.82,39.38,5.188z M34.427,5.939
			c-1.617,3.194-3.244,6.386-4.888,9.567c-0.109,0.213-0.13,0.458-0.097,0.694c-0.436-0.249-0.801-0.438-1.079-0.555
			c1.992-3.252,3.979-6.508,5.988-9.75C34.643,5.427,34.677,5.446,34.427,5.939z M34.152,2.866c-1.52,2.437-3.037,4.876-4.545,7.32
			c-0.289,0.471-0.291,0.469-0.008-0.006c1.459-2.435,2.848-4.911,4.115-7.454C33.862,2.771,34.007,2.82,34.152,2.866z M31.145,3.64
			c-3.188,6.309-7.109,12.231-10.932,18.197c-0.049,0.076-0.063,0.143-0.086,0.214c-0.578,0-1.157,0-1.736,0
			c-0.236,0-0.475-0.006-0.713-0.013c0.062-0.063,0.13-0.125,0.176-0.194c4.148-6.263,8.525-12.376,13.124-18.31
			C31.314,3.097,31.393,3.147,31.145,3.64z M27.574,1.899c0.032-0.073,0.033-0.138,0.045-0.206c0.86,0.049,1.706,0.138,2.539,0.264
			c-2.227,2.838-4.422,5.703-6.555,8.616c-0.328,0.445-0.385,0.408-0.135-0.083C24.912,7.657,26.295,4.797,27.574,1.899z
			 M17.959,4.708c0.24-0.436,0.477-0.873,0.715-1.309c0.031-0.058,0.035-0.1,0.054-0.15c0.142-0.053,0.281-0.111,0.425-0.161
			c-0.025,0.032-0.061,0.064-0.082,0.097c-0.352,0.52-0.701,1.04-1.047,1.563C17.718,5.209,17.693,5.192,17.959,4.708z
			 M2.106,29.432c-1.022-8.233,2.349-15.8,8.026-20.955c-2.298,3.65-4.527,7.351-6.824,10.999c-0.295,0.468-0.652,1.278-0.775,1.816
			c-0.185,0.815-0.332,1.646-0.439,2.488c-0.07,0.548,0.143,0.624,0.447,0.163c4.021-6.057,7.672-12.384,11.636-18.487
			c0.602-0.366,1.219-0.707,1.85-1.026c-0.03,0.047-0.071,0.096-0.097,0.141c-4.406,7.961-8.961,15.84-13.467,23.746
			C2.298,28.605,2.173,29.023,2.106,29.432z M5.279,39.155c-0.959-1.747-1.733-3.602-2.297-5.525c0.128-0.008,0.267-0.1,0.392-0.311
			C9.503,23.037,14.931,12.272,21.675,2.448c0.031-0.046,0.036-0.08,0.058-0.122c1.264-0.303,2.557-0.511,3.871-0.618
			c-0.071,0.092-0.142,0.185-0.186,0.284c-3.045,6.781-6.523,13.355-10.162,19.855c-0.032,0.058-0.059,0.107-0.088,0.162
			c-1.712,0.106-3.029,0.692-3.029,3.104c0,0.812-0.07,1.648-0.124,2.455c-0.079,0.138-0.156,0.274-0.235,0.412
			c-2.182,3.474-4.289,6.991-6.32,10.554C5.359,38.71,5.306,38.93,5.279,39.155z M7.866,43.057c-0.556-0.701-1.081-1.427-1.567-2.18
			c0.136-0.049,0.267-0.143,0.367-0.32c1.831-3.229,3.686-6.448,5.541-9.668c0.246,0.708,0.712,1.25,1.554,1.526
			c-0.015,0.022-0.03,0.038-0.044,0.062c-1.934,3.295-3.836,6.609-5.699,9.949C7.917,42.607,7.875,42.83,7.866,43.057z
			 M11.731,47.023c-0.645-0.535-1.262-1.104-1.854-1.7c0.177-0.054,0.344-0.158,0.462-0.35c2.518-4.039,5.014-8.092,7.502-12.149
			c0.044-0.071,0.055-0.137,0.076-0.202c0.82,0,1.64,0,2.459,0c-0.062,0.07-0.131,0.141-0.176,0.218
			c-0.406,0.711-0.816,1.416-1.231,2.113c-0.92,1.549-1.822,3.108-2.713,4.675c-0.402,0.672-0.805,1.345-1.213,2.014
			c-1.047,1.579-2.1,3.153-3.15,4.729C11.763,46.564,11.72,46.797,11.731,47.023z M14.644,46.503
			c1.031-1.985,2.098-3.954,3.193-5.909c1.715-2.595,3.43-5.19,5.143-7.786c0.044-0.064,0.055-0.124,0.078-0.185
			c0.304,0,0.608,0,0.912,0c0.12,0,0.224,0.013,0.332,0.021c-0.052,0.061-0.113,0.114-0.152,0.178
			c-2.213,3.554-4.496,7.06-6.92,10.477c-0.81,1.102-1.625,2.198-2.443,3.292C14.457,47.032,14.39,46.993,14.644,46.503z
			 M20.745,51.789c-2.077-0.576-4.047-1.436-5.873-2.533c0.005-0.006,0.016-0.012,0.021-0.019c1.527-1.94,2.994-3.92,4.422-5.928
			c2.319-3.151,4.578-6.35,6.683-9.632c0.543,1.093,0.257,2.84,0.24,4.306c-0.032,0.094-0.039,0.19,0.006,0.293
			c0.078,0.179,0.156,0.354,0.235,0.532c0.186,0.424,0.697,0.419,1.091,0.335c-2.277,4-4.523,8.019-6.747,12.048
			C20.709,51.396,20.699,51.603,20.745,51.789z M26.748,52.61c-1.22-0.003-2.416-0.102-3.585-0.292
			c0.181-0.121,0.341-0.268,0.437-0.453c0.061-0.116,0.121-0.233,0.18-0.351c0.254-0.492,0.758-1.223,1.121-1.639
			c1.6-1.832,3.111-3.745,4.551-5.696c0.328-0.444,0.438-0.386,0.248,0.134c-0.957,2.638-1.92,5.273-2.881,7.91
			C26.768,52.361,26.748,52.49,26.748,52.61z M29.802,49.961c1.49-4.104,2.977-8.207,4.446-12.316
			c0.188-0.519,0.58-1.315,0.878-1.782c0.639-1.002,1.262-2.013,1.875-3.029c0.053-0.087,0.076-0.149,0.102-0.212
			c0.531-0.34,1.085-0.688,1.641-1.05c-0.018,0.035-0.046,0.073-0.062,0.106C35.715,37.766,32.814,43.889,29.893,50
			C29.652,50.498,29.611,50.479,29.802,49.961z M52.102,24.615c0.251,1.908,0.256,3.783,0.057,5.606
			c-1.909,4.442-3.887,8.858-5.865,13.274c-2.104,2.44-4.669,4.495-7.535,6.037c0.888-2.049,1.763-4.103,2.626-6.162
			c3.323-6.633,6.911-13.136,10.569-19.602C51.999,24.054,52.063,24.33,52.102,24.615z M51.094,21.418
			c0.08-0.17,0.158-0.341,0.237-0.511c0.017,0.057,0.03,0.114,0.046,0.171c-0.071,0.125-0.145,0.25-0.216,0.376
			C50.889,21.934,50.857,21.918,51.094,21.418z M50.457,18.226c-1.492,3.237-3.024,6.457-4.54,9.679
			c-2.488,5.293-4.72,10.703-6.974,16.103c-1.151,2.304-2.269,4.627-3.35,6.967c-1.503,0.567-3.063,0.999-4.668,1.277
			c0.013-0.023,0.035-0.045,0.047-0.068c3.682-7.669,7.309-15.368,11.057-23.003c0.037-0.075,0.047-0.126,0.066-0.185
			c0.498-0.499,0.927-1.024,1.235-1.582c0.071-0.13-0.007-0.348-0.196-0.631c0.1-0.106,0.269-0.382,0.444-0.74
			c1.801-3.614,3.64-7.207,5.524-10.773C49.613,16.217,50.061,17.206,50.457,18.226z M47.988,13.375
			c-2.033,3.791-4.009,7.612-5.934,11.46c-0.1,0.195-0.127,0.408-0.121,0.615c-0.183-0.176-0.385-0.361-0.596-0.552
			c0.135-0.08,0.259-0.186,0.344-0.347c2.066-3.881,4.001-7.836,5.852-11.826C47.685,12.943,47.844,13.153,47.988,13.375z"/>
	</g>
</g>
<g>
</g>
<g>
</g>
<g>
</g>
<g>
</g>
<g>
</g>
<g>
</g>
<g>
</g>
<g>
</g>
<g>
</g>
<g>
</g>
<g>
</g>
<g>
</g>
<g>
</g>
<g>
</g>
<g>
</g>
</svg>
